<?xml version="1.0" encoding="utf-8"?>
<!-- Generator: Adobe Illustrator 24.0.3, SVG Export Plug-In . SVG Version: 6.00 Build 0)  -->
<svg version="1.1" id="Layer_1" xmlns="http://www.w3.org/2000/svg" xmlns:xlink="http://www.w3.org/1999/xlink" x="0px" y="0px"
	 viewBox="0 0 500 380" style="enable-background:new 0 0 500 380;" xml:space="preserve">
<g>
	<g>
		<g>
			<path d="M74.9,355.3c1.3,1.8,3.6,3.3,6.5,3.3c3.7,0,8.4-2.3,8.4-8.9v-32.9h7.4v33.6c0,9.7-7.7,15.6-15.6,15.6
				c-5.6,0-9.9-2.6-12.7-6.4L74.9,355.3z"/>
		</g>
		<g>
			<path d="M132,354.7h-18.5l-3.8,10.9h-7.8l17.7-48.8h6.2l17.7,48.8h-7.8L132,354.7z M129.9,348.1l-7.1-21.3h-0.1l-7.1,21.3H129.9z
				"/>
		</g>
		<g>
			<path d="M148.8,316.8h7.4v25.1h0.1l20.1-25.1h8.8L169.5,336l17.3,29.5H178l-13.3-23.8l-8.6,9v14.9h-7.4V316.8z"/>
		</g>
		<g>
			<path d="M217,354.7h-18.5l-3.8,10.9h-7.8l17.7-48.8h6.2l17.7,48.8h-7.8L217,354.7z M214.8,348.1l-7.1-21.3h-0.1l-7.1,21.3H214.8z
				"/>
		</g>
		<g>
			<path d="M233.8,316.8h19c4.1,0,7.3,1,9.9,3.2c2.7,2.3,4.9,6,4.9,10.4c0,6.3-3.6,11.4-9.5,13.5l11.3,21.7h-8.8l-10.1-20.8h-9.5
				v20.8h-7.4V316.8z M241.2,338.2h11.2c5.6,0,8.3-3.6,8.3-7.7c0-2.5-1-4.5-2.5-5.6c-1.4-1-2.9-1.5-5.4-1.5h-11.6V338.2z"/>
		</g>
		<g>
			<path d="M282.6,323.4h-13.4v-6.6h34.1v6.6H290v42.2h-7.4V323.4z"/>
		</g>
		<g>
			<path d="M328.5,354.7H310l-3.8,10.9h-7.8l17.7-48.8h6.2l17.7,48.8h-7.8L328.5,354.7z M326.4,348.1l-7.1-21.3h-0.1l-7.1,21.3
				H326.4z"/>
		</g>
		<g>
			<path d="M361.8,316.8h31.2v7h-23.8v13.9h20.3v6.6h-20.3v14.3h23.8v7h-31.2V316.8z"/>
		</g>
		<g>
			<path d="M399.9,316.8H431v7h-23.8v13.9h20.3v6.6h-20.3v14.3H431v7h-31.2V316.8z"/>
		</g>
	</g>
	<g>
		<g>
			<path d="M304.8,50.1c0,0,18.8,93.2-43.3,173.5l-93.7-23.4L304.8,50.1z"/>
		</g>
		<g>
			<path d="M286.1,239.3c5.4,0,10.8,0.3,16,0.7l-176.8-43.6c0,0,32.9,10.9,72.6,70.3C219,249.9,250.7,239.3,286.1,239.3z"/>
		</g>
		<g>
			<path d="M304.8,50.1c0,0,18.8,93.4-43.4,173.8l-93.9-23.4L304.8,50.1z"/>
		</g>
		<g>
			<g>
				<path d="M369.7,21.4l-55.3,60.5c0.1,7.6-0.2,16.2-1.1,25.6c-1.8,19.9-6,39.3-12.4,57.6c-7.6,21.8-18.4,42.1-32,60.3l46.8,11.7
					C406.1,152.1,369.7,21.4,369.7,21.4z"/>
			</g>
		</g>
	</g>
</g>
<g>
	<path d="M337.8,325.4c-0.7-0.4-1.3-1-1.7-1.7c-0.4-0.7-0.6-1.5-0.6-2.3c0-0.8,0.2-1.6,0.6-2.3c0.4-0.7,1-1.3,1.7-1.7
		c0.7-0.4,1.5-0.6,2.3-0.6c0.8,0,1.6,0.2,2.3,0.6c0.7,0.4,1.3,1,1.7,1.7c0.4,0.7,0.6,1.5,0.6,2.3c0,0.8-0.2,1.6-0.6,2.3
		s-1,1.2-1.7,1.7c-0.7,0.4-1.5,0.6-2.3,0.6S338.5,325.8,337.8,325.4z M342.8,324.1c0.7-0.7,1-1.6,1-2.7c0-0.7-0.1-1.4-0.5-2
		s-0.7-1-1.3-1.3s-1.2-0.5-1.9-0.5c-1.1,0-2,0.3-2.7,1c-0.7,0.7-1,1.6-1,2.7c0,1.1,0.3,2,1,2.7c0.7,0.7,1.6,1,2.7,1
		C341.2,325.1,342.1,324.8,342.8,324.1z M341.8,323.7C341.8,323.7,341.8,323.7,341.8,323.7l-0.7,0c0,0-0.1,0-0.1-0.1l-0.7-2
		c0,0,0,0,0-0.1c0,0,0,0-0.1,0h-0.9c0,0-0.1,0-0.1,0.1v1.9c0,0.1,0,0.1-0.1,0.1h-0.6c-0.1,0-0.1,0-0.1-0.1v-4.4c0-0.1,0-0.1,0.1-0.1
		h2c0.5,0,0.9,0.1,1.1,0.3c0.3,0.2,0.4,0.5,0.4,0.9c0,0.6-0.3,1-0.9,1.2c0,0,0,0,0,0.1l0.8,2C341.8,323.6,341.8,323.6,341.8,323.7z
		 M341.1,320.4c0-0.4-0.3-0.6-0.9-0.6h-1c0,0,0,0,0,0s0,0,0,0c0,0,0,0,0,0.1v1c0,0.1,0,0.1,0.1,0.1h1.1
		C340.8,321,341.1,320.8,341.1,320.4z"/>
</g>
</svg>
